<?xml version="1.0" encoding="UTF-8"?>
<svg id="Layer_2" data-name="Layer 2" xmlns="http://www.w3.org/2000/svg" viewBox="0 0 547.06 131.47">
  <defs>
    <style>
      .cls-1 {
        fill: none;
        stroke: #fff;
        stroke-miterlimit: 10;
        stroke-width: 4.5px;
      }

      .cls-2 {
        fill-rule: evenodd;
      }

      .cls-2, .cls-3 {
        fill: #fff;
        stroke-width: 0px;
      }
    </style>
  </defs>
  <g id="Layer_1-2" data-name="Layer 1">
    <path class="cls-2" d="M188.13,70.88c-2.32-2.34-4.86-3.69-6.93-3.69-3.98,0-7.18,2.47-13.34,10.28v-8.89h-9.34v53.11h9.34v-31.52c4.96-8.97,9.02-13.53,12.06-13.53.89,0,1.72.46,3.49,2l.3.26,4.59-7.86-.18-.17ZM211.32,67.2c-14.48,0-26.27,12.56-26.27,28s12.04,28.01,26.27,28.01,26.16-12.82,26.16-28.01-11.73-28-26.16-28M211.32,114.8c-9.04,0-16.12-8.6-16.12-19.6s7.08-19.58,16.12-19.58,16.02,8.6,16.02,19.58-7.04,19.6-16.02,19.6M139.6,121.7h10.15V44.62h-10.15v77.08ZM515.2,36.62v33.88c-3.28-2.34-6.86-3.3-12.19-3.3-15.67,0-27.07,12.37-27.07,29.4,0,15.66,9.13,26.6,22.21,26.6,6.39,0,12.41-2.72,17.05-7.63v6.13h9.45V36.62h-9.45ZM515.2,105.29c-2.37,2.91-3.62,4.16-5.55,5.51-3.08,2.22-6.83,3.53-10,3.53-7.92,0-13.67-7.5-13.67-17.85,0-12.32,7.05-20.29,17.97-20.29,5.27,0,8.8,1.45,10.25,4.22.9,1.72,1,2.9,1,6.81v18.07ZM445.18,67.2c-14.47,0-26.26,12.56-26.26,28s12.02,28.01,26.26,28.01,26.16-12.82,26.16-28.01-11.72-28-26.16-28M445.18,114.8c-9.03,0-16.1-8.6-16.1-19.6s7.07-19.58,16.1-19.58,16,8.6,16,19.58-7.02,19.6-16,19.6M389.1,67.2c-14.48,0-26.26,12.56-26.26,28s12.01,28.01,26.26,28.01,26.15-12.82,26.15-28.01-11.72-28-26.15-28M389.1,114.8c-9.04,0-16.11-8.6-16.11-19.6s7.07-19.58,16.11-19.58,16,8.6,16,19.58-7.03,19.6-16,19.6M272.58,67.2c-5.02,0-10.34,1.97-14.23,5.3-2.41,1.95-3.53,3.07-6.64,6.57v-10.47h-9.34v53.11h9.34v-32.27c9.02-9.94,14.6-13.82,19.82-13.82,2.35,0,4.28.99,5.03,2.59.58,1.49.78,2.63.78,6v37.5h9.33v-39.59c0-10.05-4.6-14.92-14.09-14.92M356.08,68.59s-12.62,40.19-12.98,41.33c-1.74-5.26-13.7-41.1-13.7-41.1l-.06-.23h-9.87s3.52,9.26,3.61,9.48c-.08.22-11.18,30.9-11.57,31.98-1.56-5.22-12.44-41.23-12.44-41.23l-.08-.23h-10.17l17.69,54.61h7.77l12.46-32.98s.22-.92.42-1.72c.22.81.46,1.68.46,1.68.01.04,11.9,33.02,11.9,33.02h7.52l18.41-54.61h-9.37Z"/>
    <g>
      <path class="cls-1" d="M84.21,123.76c13.52-12.2,23.78-27.31,29.4-44.72,5.62-17.41,5.98-35.23,1.89-52.26-13.52,12.22-23.78,27.32-29.39,44.73-5.62,17.42-5.98,35.24-1.9,52.25Z"/>
      <path class="cls-1" d="M23.63,60.11c-6.28-6.45-13.48-11.82-21.37-16.09.05,16.59,4.04,32.74,12.42,47.15,8.38,14.39,20.24,25.48,34.25,33.07-.01-4.56-.32-9.08-.94-13.54"/>
      <path class="cls-1" d="M64.94,127.31c4.55-22.79,3.56-46.09-3.95-68.2-7.52-22.1-20.71-40.62-37.86-54.95-4.54,22.82-3.55,46.1,3.96,68.2,7.51,22.1,20.71,40.63,37.85,54.95Z"/>
    </g>
    <path class="cls-3" d="M539.44,51.26c-4.22,0-7.64-3.42-7.64-7.64s3.42-7.62,7.64-7.62,7.62,3.42,7.62,7.62-3.42,7.64-7.62,7.64ZM539.44,37.19c-3.57,0-6.45,2.88-6.45,6.43s2.88,6.45,6.45,6.45,6.43-2.88,6.43-6.45-2.88-6.43-6.43-6.43ZM541.39,48.03l-2.69-3.62h-.93v3.62h-1.52v-8.77h3.16c2.29,0,3.29.74,3.29,2.47,0,1.45-.87,2.42-2.36,2.56l2.94,3.74h-1.88ZM540.63,40.63c-.28-.13-.73-.2-1.45-.2h-1.41v2.92h1.41c1.36,0,2.01-.5,2.01-1.58,0-.5-.22-.97-.56-1.13Z"/>
  </g>
</svg>